<svg xmlns="http://www.w3.org/2000/svg" viewBox="0 0 800 600" role="img" aria-labelledby="title desc">
  <title id="title">Lake Victoria guesthouse</title><desc id="desc">Original StayIn lakeside guesthouse illustration with sunset water and reeds.</desc>
  <defs><linearGradient id="sky" x1="0" x2="0" y1="0" y2="1"><stop stop-color="#E7B96F"/><stop offset=".55" stop-color="#F9DCA3"/><stop offset="1" stop-color="#BEE6E4"/></linearGradient><linearGradient id="water" x1="0" x2="1"><stop stop-color="#236A78"/><stop offset="1" stop-color="#7CC8BD"/></linearGradient></defs>
  <rect width="800" height="600" fill="url(#sky)"/><circle cx="585" cy="150" r="64" fill="#FFD489" opacity=".85"/><path d="M0 338 C180 295 340 345 515 312 C650 287 730 305 800 280 L800 600 L0 600Z" fill="url(#water)"/><path d="M0 455 C155 410 310 445 462 420 C605 395 700 408 800 388 L800 600 L0 600Z" fill="#D6AC68"/>
  <g transform="translate(170 230)"><path d="M0 108 L185 0 L370 108 Z" fill="#5B371E"/><rect x="38" y="108" width="295" height="174" rx="14" fill="#F6E7CE"/><rect x="76" y="145" width="72" height="68" rx="9" fill="#153F51"/><rect x="215" y="142" width="78" height="140" rx="10" fill="#174A3A"/><path d="M-18 108 H390" stroke="#CF9852" stroke-width="15" stroke-linecap="round"/></g>
  <g stroke="#3A5E32" stroke-width="8" stroke-linecap="round"><path d="M70 520 C75 475 72 440 60 405"/><path d="M95 530 C105 482 110 447 102 410"/><path d="M710 530 C702 480 706 442 725 402"/><path d="M745 528 C742 488 752 452 775 420"/></g>
</svg>
