<svg xmlns="http://www.w3.org/2000/svg" viewBox="0 0 800 600" role="img" aria-labelledby="title desc">
  <title id="title">Serengeti safari lodge</title><desc id="desc">Original StayIn safari lodge illustration with acacia trees and savannah sunset.</desc>
  <defs><linearGradient id="sky" x1="0" x2="0" y1="0" y2="1"><stop stop-color="#7B3F22"/><stop offset=".55" stop-color="#F2A24C"/><stop offset="1" stop-color="#F6D8A2"/></linearGradient></defs>
  <rect width="800" height="600" fill="url(#sky)"/><circle cx="615" cy="135" r="72" fill="#FFD283" opacity=".86"/><path d="M0 360 C180 310 310 345 455 320 C575 300 682 330 800 292 L800 600 L0 600Z" fill="#B97934"/><path d="M0 430 C220 390 390 420 580 395 C670 383 735 392 800 375 L800 600 L0 600Z" fill="#8F612B"/>
  <g transform="translate(168 245)"><path d="M20 118 L235 8 L455 118 Z" fill="#55321A"/><rect x="58" y="118" width="360" height="175" rx="14" fill="#F1DFC0"/><rect x="92" y="160" width="82" height="72" rx="10" fill="#243E36"/><rect x="215" y="154" width="92" height="139" rx="12" fill="#5D3219"/><rect x="337" y="160" width="56" height="72" rx="10" fill="#243E36"/><path d="M0 118 H472" stroke="#D99B4D" stroke-width="18" stroke-linecap="round"/></g>
  <g fill="none" stroke-linecap="round"><path d="M95 410 C108 330 115 265 105 205" stroke="#51351F" stroke-width="15"/><path d="M105 205 C55 212 35 190 12 165 M105 205 C155 195 190 168 212 132 M105 205 C110 157 140 130 178 106" stroke="#23553B" stroke-width="24"/><path d="M675 395 C665 305 675 245 710 185" stroke="#51351F" stroke-width="13"/><path d="M710 185 C650 190 625 166 600 135 M710 185 C755 170 780 142 805 104" stroke="#23553B" stroke-width="22"/></g>
</svg>
